<?xml version="1.0" encoding="utf-8"?>
<!-- Generator: Adobe Illustrator 19.1.0, SVG Export Plug-In . SVG Version: 6.00 Build 0)  -->
<svg version="1.1" id="Layer_1" xmlns="http://www.w3.org/2000/svg" xmlns:xlink="http://www.w3.org/1999/xlink" x="0px" y="0px"
	 viewBox="-221 22.3 56.7 56.7" style="enable-background:new -221 22.3 56.7 56.7;" xml:space="preserve">
<style type="text/css">
	.st0{fill:#231F20;}
</style>
<g>
	<g id="XMLID_2_">
		<g>
			<path class="st0" d="M-164.7,26.3v48.9c0,1.9-1.6,3.4-3.5,3.4h-13.9V57.7h7l1.8-8.7h-8.7v-3.4c0-3.5,1.8-5.2,5.2-5.2h3.5v-8.7
				c-1.8,0-3.8,0-7,0c-6.4,0-10.5,5.1-10.5,12.2v5.2h-7v8.7h7v20.9H-217c-2,0-3.5-1.6-3.5-3.4V26.3c0-1.9,1.6-3.5,3.5-3.5h48.9
				C-166.3,22.7-164.7,24.3-164.7,26.3z"/>
		</g>
	</g>
</g>
</svg>
