<?xml version="1.0" encoding="utf-8"?>
<!-- Generator: Adobe Illustrator 19.1.0, SVG Export Plug-In . SVG Version: 6.00 Build 0)  -->
<svg version="1.1" id="Layer_1" xmlns="http://www.w3.org/2000/svg" xmlns:xlink="http://www.w3.org/1999/xlink" x="0px" y="0px"
	 viewBox="-221 22.3 56.7 56.7" style="enable-background:new -221 22.3 56.7 56.7;" xml:space="preserve">
<style type="text/css">
	.st0{fill:#231F20;}
</style>
<path class="st0" d="M-171.7,22.7h-41.9c-4,0-7,3-7,7v41.9c0,4,3,7,7,7h41.9c4,0,7-3,7-7V29.7C-164.7,25.8-167.8,22.7-171.7,22.7z
	 M-192.6,39.7c6.2,0,11.2,4.9,11.2,10.8c0,6-5,10.8-11.2,10.8c-6.2,0.1-11.2-4.8-11.2-10.8C-203.9,44.6-198.9,39.7-192.6,39.7z
	 M-171.7,69.9c0,1.2-0.5,1.8-1.8,1.8h-38.4c-1.2,0-1.8-0.5-1.8-1.8V45.4l4.4,0.9c-0.4,1.6-0.7,3.1-0.7,4.8c0,9.3,7.8,16.9,17.4,16.9
	c9.6,0,17.4-7.5,17.4-16.9c0-1.7-0.2-3.2-0.7-4.8l4.3-0.9C-171.7,45.4-171.7,69.9-171.7,69.9z M-171.7,38.5c0,0.9-0.7,1.8-1.8,1.8
	h-7c-0.9,0-1.8-0.7-1.8-1.8v-7c0-0.9,0.7-1.8,1.8-1.8h7c0.9,0,1.8,0.7,1.8,1.8V38.5z"/>
</svg>
