<?xml version="1.0" encoding="utf-8"?>
<!-- Generator: Adobe Illustrator 19.1.0, SVG Export Plug-In . SVG Version: 6.00 Build 0)  -->
<svg version="1.1" id="Layer_1" xmlns="http://www.w3.org/2000/svg" xmlns:xlink="http://www.w3.org/1999/xlink" x="0px" y="0px"
	 viewBox="-221 22.3 56.7 56.7" style="enable-background:new -221 22.3 56.7 56.7;" xml:space="preserve">
<style type="text/css">
	.st0{fill:#231F20;}
</style>
<g id="XMLID_1_">
	<g>
		<path class="st0" d="M-164.6,25.8v49.7c0,1.7-1.5,3.1-3.1,3.1h-49.7c-1.7,0-3.1-1.5-3.1-3.1V25.8c0-1.7,1.5-3.1,3.1-3.1h49.7
			C-166.1,22.6-164.6,24.1-164.6,25.8z M-177.3,42.9c1.7-1,2.9-2.4,4.1-4c-1.5,0.6-2.9,1-4.5,1.3c1.7-0.9,2.8-2.5,3.4-4.3
			c-1.5,0.8-3.1,1.6-5,1.9c-1.5-1.5-3.4-2.5-5.7-2.5c-4.4,0-7.8,3.5-7.8,7.8c0,0.6,0.1,1.3,0.2,1.8c-6.5-0.3-12.3-3.4-16.2-8.1
			c-0.6,1.1-1,2.5-1,3.9c0,2.7,1.4,5.1,3.5,6.5c-1.3-0.1-2.5-0.4-3.5-0.9v0.1c0,3.8,2.7,7,6.3,7.7c-0.7,0.2-1.4,0.3-2.1,0.3
			c-0.5,0-1-0.1-1.5-0.1c1,3.1,3.9,5.3,7.3,5.4c-2.7,2.1-6,3.3-9.7,3.3c-0.6,0-1.3-0.1-1.9-0.1c3.4,2.2,7.5,3.5,11.9,3.5
			c14.4,0,22.2-11.9,22.2-22.2C-177.3,43.6-177.3,43.2-177.3,42.9z"/>
	</g>
</g>
</svg>
